<?xml version="1.0" encoding="utf-8"?>
<!-- Generator: Adobe Illustrator 26.0.3, SVG Export Plug-In . SVG Version: 6.00 Build 0)  -->
<svg version="1.1" id="res" xmlns="http://www.w3.org/2000/svg" xmlns:xlink="http://www.w3.org/1999/xlink" x="0px" y="0px"
	 viewBox="0 0 410.3 280.8" style="enable-background:new 0 0 410.3 280.8;" xml:space="preserve">
<style type="text/css">
	.st0{fill:#47AC34;stroke:#000000;stroke-miterlimit:10;}
	.st1{fill:#41AB34;stroke:#000000;stroke-miterlimit:10;}
</style>
<polygon class="st0" points="232.1,176.5 232.1,0.5 188.1,0.5 188.1,220.5 197.2,220.5 232.1,220.5 288.2,220.5 288.2,176.5 "/>
<path class="st0" d="M156,220.2l46.7,0.3L129.3,46.7H69.9L0.7,219.1l45.3,0.3l16-40h76.7L156,220.2z M79.7,135.5l19.7-49.2
	l20.8,49.2H79.7z"/>
<polygon class="st1" points="303,47.4 287,47.4 259,47.4 259,280.3 303,280.3 303,179.2 409.8,179.2 409.8,135.2 303,135.2 
	303,91.7 409.8,91.7 409.8,80.6 409.8,47.7 409.8,47.4 "/>
</svg>
