<?xml version="1.0" encoding="utf-8"?>
<!-- Generator: Adobe Illustrator 26.0.3, SVG Export Plug-In . SVG Version: 6.00 Build 0)  -->
<svg version="1.1" id="res" xmlns="http://www.w3.org/2000/svg" xmlns:xlink="http://www.w3.org/1999/xlink" x="0px" y="0px"
	 viewBox="0 0 409.1 279.8" style="enable-background:new 0 0 409.1 279.8;" xml:space="preserve">
<style type="text/css">
	.st0{fill:#2A7832;}
</style>
<polygon class="st0" points="231.4,176 231.4,0 187.4,0 187.4,220 196.5,220 231.4,220 287.5,220 287.5,176 "/>
<path class="st0" d="M155.3,219.7L202,220L128.6,46.2H69.1L0,218.6l45.3,0.3l16-40H138L155.3,219.7z M79,135l19.7-49.2l20.8,49.2H79
	z"/>
<polygon class="st0" points="409.1,46.9 302.2,46.9 295.6,46.9 258.2,46.9 258.2,279.8 302.2,279.8 302.2,178.7 409.1,178.7 
	409.1,134.7 302.2,134.7 302.2,91.2 409.1,91.2 409.1,81.5 409.1,81.5 "/>
</svg>
