<svg width="24" height="24" viewBox="0 0 50 50" xmlns="http://www.w3.org/2000/svg">
<g>
<path d="M23.7877 0.0289461C10.5828 0.65769 0.162205 11.6549 0.202264 24.8747C0.214461 28.9012 1.18651 32.7016 2.90127 36.0597L0.26851 48.8394C0.126092 49.5307 0.749575 50.136 1.43631 49.9733L13.9589 47.0065C17.1762 48.6091 20.7899 49.5347 24.6144 49.5931C38.1111 49.7992 49.365 39.0825 49.7857 25.5908C50.2366 11.1286 38.3005 -0.662218 23.7877 0.0289461ZM38.7299 38.5279C35.0625 42.1952 30.1865 44.2149 25.0001 44.2149C21.9633 44.2149 19.0559 43.5336 16.3583 42.1898L14.6144 41.3211L6.93669 43.1401L8.5528 35.2949L7.69362 33.6125C6.29324 30.8699 5.58318 27.9043 5.58318 24.798C5.58318 19.6115 7.60286 14.7356 11.2702 11.0681C14.9048 7.43349 19.8604 5.38093 25.0005 5.38093C30.1868 5.38104 35.0627 7.40073 38.73 11.068C42.3974 14.7353 44.417 19.6113 44.4172 24.7976C44.417 29.9378 42.3645 34.8934 38.7299 38.5279Z"/>
<path d="M37.035 30.1758L32.2316 28.7966C31.6001 28.6153 30.9201 28.7944 30.4599 29.2633L29.2853 30.46C28.79 30.9646 28.0385 31.1268 27.3829 30.8616C25.1107 29.942 20.3309 25.6922 19.1103 23.5664C18.7581 22.9532 18.8163 22.1866 19.2487 21.6271L20.2742 20.3004C20.676 19.7806 20.7608 19.0825 20.4951 18.4816L18.4742 13.9109C17.9902 12.8162 16.5912 12.4975 15.6773 13.2705C14.3367 14.4043 12.746 16.1273 12.5527 18.0362C12.2118 21.4016 13.6551 25.644 19.113 30.738C25.4184 36.6231 30.4677 37.4006 33.7553 36.6042C35.62 36.1526 37.1102 34.3419 38.0507 32.8594C38.6918 31.8486 38.1856 30.5062 37.035 30.1758Z"/>
</g>
</svg>
