<?xml version="1.0" encoding="UTF-8" standalone="no"?>
<!-- Created with Inkscape (http://www.inkscape.org/) -->

<svg
   width="41.856358mm"
   height="28.1373mm"
   viewBox="0 0 41.856358 28.1373"
   version="1.1"
   id="svg831"
   inkscape:version="1.1 (c68e22c387, 2021-05-23)"
   sodipodi:docname="favicon.svg"
   xmlns:inkscape="http://www.inkscape.org/namespaces/inkscape"
   xmlns:sodipodi="http://sodipodi.sourceforge.net/DTD/sodipodi-0.dtd"
   xmlns="http://www.w3.org/2000/svg"
   xmlns:svg="http://www.w3.org/2000/svg">
  <sodipodi:namedview
     id="namedview833"
     pagecolor="#ffffff"
     bordercolor="#666666"
     borderopacity="1.0"
     inkscape:pageshadow="2"
     inkscape:pageopacity="0.0"
     inkscape:pagecheckerboard="0"
     inkscape:document-units="mm"
     showgrid="false"
     inkscape:zoom="0.74118967"
     inkscape:cx="128.17232"
     inkscape:cy="-65.435342"
     inkscape:window-width="1920"
     inkscape:window-height="1017"
     inkscape:window-x="-8"
     inkscape:window-y="-8"
     inkscape:window-maximized="1"
     inkscape:current-layer="layer1" />
  <defs
     id="defs828" />
  <g
     inkscape:label="Слой 1"
     inkscape:groupmode="layer"
     id="layer1"
     transform="translate(-71.041233,-165.95262)">
    <path
       inkscape:connector-curvature="0"
       id="rect2360"
       d="m 75.720534,165.95262 c -2.592308,0 -4.679301,2.29891 -4.679301,5.15472 v 17.82786 c 0,2.85581 2.086993,5.15472 4.679301,5.15472 h 32.497756 c 2.59231,0 4.6793,-2.29891 4.6793,-5.15472 v -17.82786 c 0,-2.85581 -2.08699,-5.15472 -4.6793,-5.15472 z m 1.980759,2.95641 h 28.535727 c 1.96175,0 3.54138,1.57031 3.54138,3.52123 v 15.18202 c 0,1.95092 -1.57963,3.52123 -3.54138,3.52123 H 77.701293 c -1.961759,0 -3.540872,-1.57031 -3.540872,-3.52123 v -15.18202 c 0,-1.95092 1.579113,-3.52123 3.540872,-3.52123 z"
       style="fill:#431f11;fill-opacity:1;stroke:none;stroke-width:0.3;stroke-linecap:square;stroke-linejoin:miter;stroke-miterlimit:0;stroke-dasharray:none;stroke-opacity:1;paint-order:stroke fill markers" />
    <path
       inkscape:transform-center-y="6.6411147"
       inkscape:transform-center-x="-0.087383143"
       inkscape:export-filename="E:\open\OpenServer\domains\ZaBatonom\images\logo.png"
       inkscape:export-ydpi="96"
       inkscape:export-xdpi="96"
       inkscape:connector-curvature="0"
       id="path8182"
       d="m 91.418024,174.63805 a 11.490833,12.666907 0 0 0 -1.143082,0.124 11.490833,12.666907 0 0 0 -9.669177,10.65698 h 22.727295 a 11.490833,12.666907 0 0 0 0,-5.9e-4 11.490833,12.666907 0 0 0 -11.915036,-10.78039 z"
       style="fill:#eb712e;fill-opacity:1;stroke:none;stroke-width:3.37225;stroke-linejoin:miter;stroke-miterlimit:4;stroke-dasharray:none;stroke-opacity:1;paint-order:stroke markers fill" />
  </g>
</svg>
