<svg id="res" xmlns="http://www.w3.org/2000/svg" viewBox="0 0 410.31 280.82"><defs><style>.cls-1{fill:#41ab34;}.cls-1,.cls-2{stroke:#1d1d1b;stroke-miterlimit:10;}.cls-2{fill:#47ac34;}</style></defs><polygon class="cls-1" points="409.81 91.71 409.81 47.71 302.96 47.71 302.96 47.39 258.96 47.39 258.96 280.32 302.96 280.32 302.96 179.18 409.81 179.18 409.81 135.18 302.96 135.18 302.96 91.71 409.81 91.71"/><polygon class="cls-2" points="232.12 176.5 232.12 0.5 188.12 0.5 188.12 220.5 197.22 220.5 232.12 220.5 288.23 220.5 288.23 176.5 232.12 176.5"/><path class="cls-2" d="M259.27,329.16l46.71.31L232.61,155.65H173.15L104,328.12l45.34.3,16-40h76.69ZM183,244.43l19.73-49.19,20.76,49.19Z" transform="translate(-103.27 -109.25)"/></svg>