<svg width="110" height="118" viewBox="0 0 121 128" fill="none" xmlns="http://www.w3.org/2000/svg">
<path d="M12.5688 27L20.6558 116.919L56.9448 126.601L93.3348 117.102L101.431 27H12.5688V27ZM84.6098 47.471L84.1028 53.305L83.8798 56H41.3108L42.3278 68H82.8678L82.5968 70.231L79.9818 99.14L79.7898 100.83L56.9998 106.964V106.959L56.9728 106.971L34.1958 101.055L32.6498 84H43.8178L44.6088 92.46L56.9938 95.599L56.9998 95.365V95.377L69.4118 92.728L70.7078 79H32.1528L29.4188 48.164L29.1518 45H84.8758L84.6098 47.471V47.471ZM20.9558 1.62701H26.5778V7.18301H31.7218V1.62701H37.3448V18.449H31.7218V12.816H26.5788V18.449H20.9558V1.62701V1.62701ZM44.7378 7.20601H39.7878V1.62701H55.3128V7.20601H50.3608V18.449H44.7378V7.20601V7.20601ZM57.7768 1.62701H63.6388L67.2458 7.53801L70.8488 1.62701H76.7138V18.449H71.1128V10.111L67.2458 16.092H67.1479L63.2778 10.111V18.449H57.7758V1.62701H57.7768ZM79.5128 1.62701H85.1368V12.889H93.0438V18.45H79.5128V1.62701V1.62701Z" fill="#E44D26"/>
</svg>
