<svg width="128" height="128" viewBox="0 0 128 128" fill="none" xmlns="http://www.w3.org/2000/svg">
<path d="M27.7578 20.421C20.4058 30.986 21.3208 44.733 26.9378 55.961L27.3488 56.759L27.6118 57.265L27.7758 57.556L28.0688 58.08C28.2428 58.387 28.4218 58.692 28.6048 58.999L28.9108 59.503C29.1138 59.829 29.3208 60.153 29.5328 60.476L29.7978 60.885C30.0908 61.322 30.3898 61.757 30.6988 62.186L30.7248 62.219L30.8768 62.424C31.1438 62.792 31.4188 63.156 31.6978 63.517L32.0068 63.91C32.2558 64.223 32.5088 64.533 32.7658 64.844L33.0558 65.19C33.4008 65.596 33.7538 66.002 34.1128 66.398L34.1338 66.42L34.1748 66.465C34.5258 66.848 34.8848 67.223 35.2498 67.598L35.5938 67.945C35.8758 68.229 36.1628 68.508 36.4518 68.786L36.8028 69.12C37.1898 69.484 37.5798 69.842 37.9788 70.19L37.9968 70.206L38.2018 70.38C38.5528 70.685 38.9098 70.985 39.2698 71.282L39.7118 71.635C40.0058 71.87 40.3028 72.103 40.6018 72.331L41.0788 72.692C41.4088 72.935 41.7418 73.174 42.0778 73.409L42.4408 73.667L42.5418 73.739C42.8598 73.959 43.1868 74.17 43.5118 74.381L43.9318 74.661C44.4318 74.976 44.9388 75.289 45.4508 75.591L45.8708 75.828C46.2478 76.045 46.6268 76.259 47.0108 76.467L47.6418 76.793L48.4578 77.217L48.6458 77.308L48.9798 77.469C49.4068 77.673 49.8378 77.874 50.2728 78.068L50.5458 78.19C51.0438 78.408 51.5468 78.617 52.0538 78.818L52.4218 78.962C52.8908 79.144 53.3668 79.321 53.8448 79.489L54.0238 79.551C54.5478 79.735 55.0778 79.904 55.6108 80.071L55.9938 80.185C56.5358 80.349 57.0728 80.543 57.6318 80.647C93.1848 87.13 103.512 59.283 103.512 59.283C94.8378 70.583 79.4428 73.563 64.8558 70.245C64.3028 70.12 63.7668 69.947 63.2278 69.789L62.8218 69.665C62.2958 69.504 61.7728 69.335 61.2538 69.155L61.0388 69.078C60.5738 68.914 60.1148 68.742 59.6568 68.565L59.2688 68.413C58.7678 68.215 58.2688 68.008 57.7768 67.793L57.4788 67.66C57.0558 67.469 56.6368 67.276 56.2198 67.075L55.8558 66.9C55.5288 66.741 55.2058 66.572 54.8818 66.405L54.2328 66.064C53.8378 65.854 53.4508 65.634 53.0658 65.41L52.6718 65.191C52.1588 64.888 51.6528 64.576 51.1518 64.259L50.7418 63.986C50.3788 63.752 50.0168 63.513 49.6608 63.267L49.3118 63.022C48.9678 62.78 48.6268 62.533 48.2898 62.284L47.8368 61.941C47.5268 61.704 47.2188 61.465 46.9148 61.22L46.5038 60.89C46.1158 60.572 45.7328 60.25 45.3548 59.921L45.2288 59.816C44.8198 59.457 44.4178 59.088 44.0208 58.718L43.6808 58.39C43.3868 58.111 43.0968 57.829 42.8128 57.539L42.4728 57.199C42.1108 56.829 41.7558 56.454 41.4078 56.073L41.3548 56.016C40.9868 55.614 40.6268 55.203 40.2748 54.787L39.9918 54.451C39.7288 54.135 39.4688 53.813 39.2148 53.49L38.9298 53.135C38.6228 52.738 38.3248 52.342 38.0318 51.94C29.9338 40.893 27.0238 25.657 33.4968 13.145M50.5778 11.519C45.2618 19.169 45.5498 29.412 49.6978 37.502C50.3928 38.858 51.1748 40.175 52.0488 41.427C52.8448 42.57 53.7288 43.928 54.7858 44.845C55.1688 45.267 55.5698 45.679 55.9788 46.083L56.2928 46.394C56.6898 46.779 57.0938 47.158 57.5108 47.526L57.5608 47.569L57.5728 47.581C58.0348 47.986 58.5118 48.375 58.9958 48.759L59.3188 49.011C59.8048 49.383 60.2998 49.749 60.8078 50.098L60.8508 50.131L61.5308 50.578L61.8528 50.791C62.2158 51.024 62.5828 51.25 62.9568 51.467L63.1128 51.559C63.4348 51.744 63.7608 51.926 64.0878 52.104L64.4348 52.284L65.1168 52.638L65.2198 52.685C65.6888 52.915 66.1608 53.138 66.6438 53.348L66.9578 53.478C67.3438 53.641 67.7328 53.801 68.1248 53.951L68.6248 54.135C68.9808 54.267 69.3368 54.388 69.6968 54.508L70.1808 54.663C70.6918 54.821 71.1978 55.022 71.7298 55.111C99.1798 59.658 105.517 38.523 105.517 38.523C99.8048 46.751 88.7418 50.676 76.9368 47.612C76.4128 47.474 75.8948 47.324 75.3818 47.163L74.9148 47.012C74.5498 46.895 74.1868 46.769 73.8278 46.638L73.3368 46.455C72.9428 46.303 72.5528 46.146 72.1658 45.982L71.8508 45.849C71.3658 45.638 70.8888 45.415 70.4188 45.183L69.7008 44.818L69.2868 44.605C68.9808 44.439 68.6768 44.267 68.3778 44.091L68.1608 43.968C67.7888 43.751 67.4228 43.528 67.0608 43.296L66.7288 43.075L66.0168 42.603C65.5108 42.254 65.0178 41.889 64.5328 41.518L64.1988 41.254C59.0318 37.175 54.9358 31.599 52.9888 25.277C50.9478 18.72 51.3878 11.36 54.9238 5.38597M69.7708 4.86797C66.6368 9.47997 66.3288 15.209 68.5038 20.303C70.7968 25.71 75.4958 29.951 80.9808 31.963L81.6628 32.198L81.9628 32.294C82.2858 32.396 82.6068 32.514 82.9408 32.576C98.0978 35.505 102.209 24.799 103.303 23.222C99.7018 28.407 93.6498 29.652 86.2238 27.849C85.6378 27.707 84.9928 27.495 84.4278 27.294C83.7028 27.035 82.9888 26.741 82.2938 26.408C80.9758 25.774 79.7188 25.006 78.5528 24.126C71.9078 19.084 67.7808 9.46697 72.1168 1.63397" fill="#0868AC"/>
<path d="M66.3589 96.295H62.1329C61.8989 96.295 61.6659 96.483 61.6159 96.712L60.1159 103.652L58.6159 110.592C58.5669 110.821 58.3339 111.009 58.0999 111.009H55.1089C52.1499 111.009 52.4919 108.962 53.0979 106.158L53.1159 106.073L53.1819 105.719L53.1939 105.653L53.3289 104.933L53.4739 104.162L53.6279 103.377L54.3099 100.045L54.9929 96.713C55.0399 96.483 54.8859 96.294 54.6519 96.294H50.3149C50.0809 96.294 49.8489 96.482 49.8009 96.712L48.8679 101.136L47.9359 105.561L47.9339 105.567L47.8479 105.979C46.7739 110.882 47.0579 115.559 52.8959 115.706L53.0659 115.709H62.2289C62.4629 115.709 62.6959 115.521 62.7449 115.292L64.7209 106.003L66.6969 96.713C66.7459 96.483 66.5939 96.296 66.3589 96.295ZM21.1029 96.246H16.4629C16.2279 96.246 15.9939 96.434 15.9419 96.662L15.5019 98.604L15.0619 100.546C15.0109 100.775 15.1599 100.962 15.3949 100.962H20.0709C20.3059 100.962 20.5389 100.774 20.5889 100.545L21.0139 98.604L21.4389 96.663C21.4879 96.434 21.3379 96.246 21.1029 96.246ZM19.7569 102.29H15.0799C14.8459 102.29 14.6109 102.478 14.5589 102.706L13.9019 105.616L13.2459 108.525L13.0629 109.359L12.4319 112.329L11.8019 115.3C11.7529 115.529 11.6519 115.899 11.5769 116.121C11.5769 116.121 10.7029 118.721 9.23393 118.691L9.04993 118.687L7.77893 118.664H7.77793C7.54393 118.661 7.30893 118.844 7.25393 119.071L6.76893 121.11L6.28493 123.148C6.22993 123.376 6.37793 123.564 6.61093 123.568C7.44393 123.578 9.30993 123.599 10.4389 123.599C14.1079 123.599 16.0429 121.566 17.2819 115.716L18.7329 109.002L20.0939 102.705C20.1429 102.478 19.9909 102.29 19.7569 102.29ZM105.874 100.716L105.68 99.915L105.489 99.095L105.392 98.681C105.012 97.204 103.897 96.353 101.475 96.353L97.7049 96.349L94.2329 96.344H90.3259C90.0919 96.344 89.8599 96.532 89.8109 96.761L89.6379 97.577L89.4339 98.541L89.3769 98.812L87.6179 107.052L85.9479 114.874C85.8979 115.104 85.8819 115.386 85.9099 115.5C85.9379 115.615 86.3889 115.709 86.6229 115.709H90.1469C90.3819 115.709 90.6789 115.667 90.8069 115.615C90.9349 115.563 91.1239 115.102 91.1709 114.873L91.7969 111.774L92.4239 108.674L92.4249 108.669L92.5089 108.256L93.2689 104.696L93.9399 101.552C93.9899 101.323 94.2209 101.136 94.4549 101.135L105.544 101.13C105.779 101.132 105.927 100.945 105.874 100.716ZM120.149 93.476L119.295 93.479H115.746C115.511 93.479 115.21 93.638 115.079 93.832L107.23 105.33C107.098 105.524 106.947 105.496 106.895 105.268L106.317 102.735C106.265 102.506 106.03 102.319 105.795 102.319H100.75C100.515 102.319 100.376 102.503 100.44 102.728L102.701 110.649C102.765 110.875 102.77 111.245 102.712 111.473L101.727 115.306C101.668 115.534 101.812 115.719 102.047 115.719H107.034C107.268 115.719 107.508 115.533 107.566 115.306L108.552 111.473C108.61 111.244 108.773 110.906 108.915 110.718L121.657 93.807C121.799 93.619 121.722 93.466 121.488 93.468L120.149 93.476ZM80.0629 103.395V103.391C80.0339 103.645 79.7989 103.832 79.5639 103.832H73.1669C72.9449 103.832 72.8329 103.682 72.8659 103.496L72.8719 103.481L72.8679 103.483L72.8709 103.462L72.8999 103.353C73.5109 101.729 74.7549 100.663 77.0939 100.663C79.7279 100.662 80.2419 101.948 80.0629 103.395ZM78.1859 96.011C69.9749 96.011 68.0289 100.995 66.9369 106.026C65.8459 111.154 65.9389 115.947 74.4369 115.947H75.4669L75.7229 115.946H75.7829L76.8029 115.943H76.8209C79.0649 115.934 81.3159 115.917 82.2269 115.91C82.4599 115.906 82.6879 115.719 82.7359 115.49L83.0799 113.809L83.1469 113.482L83.5569 111.476C83.6039 111.247 83.4509 111.058 83.2159 111.058H75.5769C72.5379 111.058 71.6359 110.251 71.9689 107.877H84.1799L84.1789 107.878L84.1869 107.877C84.3809 107.874 84.5609 107.74 84.6319 107.562L84.6609 107.456L84.6599 107.457C86.4729 100.618 85.9529 96.012 78.1859 96.011ZM39.3759 103.369L39.2599 103.778V103.779L38.3379 107.047L37.4159 110.314C37.3529 110.541 37.1079 110.725 36.8729 110.725H31.9929C28.2909 110.725 27.3889 107.829 28.2909 103.559C29.1919 99.191 30.9589 96.476 34.6029 96.201C39.5829 95.825 40.5789 99.327 39.3759 103.369ZM42.7239 110.474C42.7239 110.474 45.0249 104.886 45.5469 101.66C46.2599 97.341 44.0969 91.075 35.7429 91.075C27.4369 91.075 23.8289 97.056 22.4529 103.559C21.0769 110.109 22.8799 115.852 31.1389 115.805L37.6549 115.781L43.7439 115.759C43.9779 115.757 44.2179 115.571 44.2779 115.345L45.3389 111.299C45.3979 111.071 45.2549 110.885 45.0199 110.883L44.0029 110.877L42.9859 110.871C42.7869 110.87 42.6729 110.74 42.6969 110.569L42.7239 110.474ZM83.8439 106.733C83.8439 106.888 83.7189 107.014 83.5639 107.014C83.4099 107.014 83.2839 106.888 83.2839 106.733C83.2839 106.579 83.4089 106.454 83.5639 106.454C83.7189 106.454 83.8439 106.579 83.8439 106.733Z" fill="#131B28"/>
</svg>
