<svg width="128" height="128" viewBox="0 0 128 128" fill="none" xmlns="http://www.w3.org/2000/svg">
<path d="M53.2389 19.1846C53.2389 23.3226 49.8805 26.6809 45.7425 26.6809C41.6045 26.6809 38.2461 23.3226 38.2461 19.1846C38.2461 15.0465 41.6045 11.6882 45.7425 11.6882C49.8805 11.6882 53.2389 15.0465 53.2389 19.1846Z" fill="#F9F9F9"/>
<path d="M63.1942 4.27173C58.2566 4.29172 53.5288 4.72151 49.3708 5.44116C37.1318 7.59013 34.9028 12.058 34.9028 20.319V31.2337H63.8339V34.8669H24.0481C15.6321 34.8669 8.2757 39.8645 5.97181 49.3699C3.31809 60.2647 3.17816 67.0764 5.97181 78.4359C8.02082 86.9068 12.9235 92.9389 21.3344 92.9389H29.8453V78.4559C29.8453 69.0254 38.1213 60.7494 47.9415 60.7494H78.2269C86.268 60.7494 93.8843 54.1876 93.8843 46.2065V20.3789C93.8843 12.6277 86.0931 6.79051 78.2269 5.50114C73.2693 4.68153 68.1168 4.31171 63.1842 4.3317M47.5467 13.0375C50.5353 13.0375 52.9741 15.4963 52.9741 18.5248C52.9741 21.5334 50.5353 23.9522 47.5467 23.9522C44.5382 23.9522 42.0994 21.5334 42.0994 18.5248C42.0994 15.5013 44.5182 13.0375 47.5467 13.0375Z" fill="#4586B9"/>
<path d="M88.2422 109.141C88.2422 113.279 84.8839 116.637 80.7459 116.637C76.5879 116.637 73.2295 113.279 73.2295 109.141C73.2295 105.003 76.5879 101.645 80.7459 101.645C84.8839 101.645 88.2422 105.003 88.2422 109.141Z" fill="#F9F9F9"/>
<path d="M98.0023 34.8569V47.5658C98.0023 57.406 89.5514 64.5326 79.9261 64.5326H48.1814C40.2752 64.5326 33.7134 72.4188 33.7134 80.25V107.502C33.7134 115.253 40.5251 119.801 48.1814 122.025C57.337 124.679 67.3122 125.188 78.2669 122.025C85.5483 119.936 92.7349 115.738 92.7349 107.502V96.5871H63.8438V92.9539H107.223C115.619 92.9539 118.762 87.1367 121.691 78.4509C124.714 69.4902 124.56 60.8594 121.691 49.3849C119.602 41.0889 115.639 34.8819 107.223 34.8819M80.106 103.874C83.0945 103.874 85.5334 106.292 85.5334 109.301C85.5334 112.31 83.1145 114.788 80.106 114.788C77.0974 114.788 74.6586 112.31 74.6586 109.301C74.6586 106.292 77.0974 103.874 80.106 103.874Z" fill="#FFE634"/>
</svg>
