<svg width="120" height="120" viewBox="0 0 141 141" fill="none" xmlns="http://www.w3.org/2000/svg">
<path d="M41.194 59.9647H35.6378L32.6107 75.5231H37.5457C40.8019 75.5231 43.2341 74.9062 44.8424 73.6681C46.4243 72.452 47.5038 70.3854 48.0546 67.517C48.6009 64.7631 48.3498 62.8111 47.3452 61.6655C46.3097 60.5419 44.2652 59.9691 41.194 59.9691V59.9647ZM70.5 33.417C31.5532 33.417 0 50.033 0 70.5C0 90.967 31.5532 107.583 70.5 107.583C109.447 107.583 141 90.967 141 70.5C141 50.033 109.447 33.417 70.5 33.417ZM51.3372 77.2019C49.8215 78.6692 47.9664 79.7707 45.966 80.4317C43.992 81.053 41.4716 81.3967 38.4181 81.3967H31.4606L29.5571 91.2667H21.454L28.6847 54.1132H44.2432C48.927 54.1132 52.3463 55.3293 54.5009 57.7836C56.6379 60.2378 57.3033 63.6835 56.4264 68.0898C56.1092 69.8347 55.4879 71.509 54.6419 73.0732C53.7915 74.5582 52.7164 75.9417 51.3328 77.2019H51.3372ZM74.9988 81.3967L78.1889 64.9481C78.5546 63.0843 78.418 61.8065 77.7703 61.1103C77.1534 60.4449 75.7963 60.1012 73.7342 60.1012H67.3319L63.2033 81.3967H55.1486L62.3749 44.2211H70.4075L68.4819 54.1132H75.6421C80.1673 54.1132 83.2605 54.8931 84.9613 56.4529C86.6842 58.0391 87.1865 60.5815 86.5255 64.0977L83.1459 81.4011L74.9988 81.3967ZM119.608 68.0898C119.29 69.8347 118.691 71.509 117.823 73.0732C116.995 74.5582 115.898 75.9417 114.54 77.2019C113.003 78.6472 111.17 79.7707 109.147 80.4317C107.173 81.053 104.648 81.3967 101.599 81.3967H94.6683L92.7428 91.2667H84.6397L91.8703 54.1132H107.429C112.113 54.1132 115.532 55.3293 117.687 57.81C119.824 60.2422 120.489 63.6835 119.612 68.0898H119.608ZM104.375 59.9647H98.841L95.8139 75.5231H100.727C104.005 75.5231 106.437 74.9062 108.024 73.6681C109.628 72.452 110.707 70.3854 111.262 67.517C111.809 64.7631 111.557 62.8111 110.522 61.6655C109.517 60.5419 107.451 59.9691 104.375 59.9691V59.9647Z" fill="black"/>
</svg>
