<svg width="124" height="91" viewBox="0 0 124 91" fill="none" xmlns="http://www.w3.org/2000/svg">
<path d="M103.755 6.5H20.2447C13.9577 6.5 8.85693 10.2433 8.85693 14.8571V76.1429C8.85693 80.7567 13.9577 84.5 20.2447 84.5H103.755C110.042 84.5 115.143 80.7567 115.143 76.1429V14.8571C115.143 10.2433 110.042 6.5 103.755 6.5ZM66.6972 67.333C66.6972 74.9241 60.6238 78.3888 51.7745 78.3888C43.7794 78.3888 39.1531 75.3594 36.7807 71.6857L44.9182 68.0817C46.484 70.1187 47.9074 71.8424 51.3475 71.8424C54.6215 71.8424 56.7092 70.9023 56.7092 67.2286V42.3138H66.6972V67.333ZM90.3268 78.3888C81.0506 78.3888 75.0483 75.1505 72.1301 70.9023L80.2676 67.4549C82.4028 70.0143 85.2023 71.912 90.1133 71.912C94.2414 71.912 96.8985 70.3973 96.8985 68.2906C96.8985 65.7835 94.1939 64.8955 89.6151 63.4156L87.124 62.6321C79.9118 60.3862 75.1432 57.5482 75.1432 51.5763C75.1432 46.0745 80.8608 41.896 89.7574 41.896C96.1156 41.896 100.671 43.5152 103.945 47.7634L96.1631 51.4196C94.4549 49.1737 92.6044 48.2857 89.7337 48.2857C86.8156 48.2857 84.9651 49.6437 84.9651 51.4196C84.9651 53.6134 86.8156 54.5013 91.1097 55.8768L93.6008 56.6602C102.094 59.3241 106.863 62.0576 106.863 68.1862C106.863 74.7674 99.7929 78.3888 90.3268 78.3888Z" fill="black"/>
</svg>
