<svg width="100" height="140" viewBox="0 0 159 105" fill="none" xmlns="http://www.w3.org/2000/svg">
<path d="M2.48562 85.3658H7.58852V65.2138L15.4888 82.7821C16.4205 84.9087 17.6962 85.6602 20.1992 85.6602C22.7022 85.6602 23.9295 84.9087 24.8611 82.7821L32.7615 65.2138V85.3658H37.8644V65.2474C37.8644 63.2847 37.0793 62.3344 35.4595 61.845C31.5826 60.6351 28.9815 61.6823 27.8039 64.2996L20.0514 81.638L12.5449 64.2983C11.4157 61.6823 8.76612 60.6351 4.88925 61.8438C3.26944 62.3344 2.48438 63.2835 2.48438 65.2461V85.3658H2.48562ZM42.1089 68.9615H47.2106V80.0642C47.1634 80.6666 47.4044 82.0827 50.1993 82.1274C51.6253 82.1498 61.2075 82.1274 61.297 82.1274V68.9068H66.4111C66.4347 68.9068 66.4061 86.936 66.4061 87.0105C66.4334 91.4575 60.8895 92.4227 58.3331 92.4972H42.2195V89.0638C42.2468 89.0638 58.3219 89.0675 58.3617 89.0626C61.6473 88.716 61.2585 87.0838 61.2572 86.5347V85.1956H50.4117C45.3659 85.1497 42.1511 82.9473 42.1102 80.4132C42.1077 80.1809 42.2207 69.0733 42.1089 68.9615Z" fill="#00618A"/>
<path d="M70.3452 85.3658H85.0179C86.7359 85.3658 88.4054 85.0068 89.7295 84.3857C91.9369 83.3721 93.0164 81.9982 93.0164 80.1971V76.468C93.0164 74.996 91.7903 73.6209 89.3855 72.7067C88.1097 72.2148 86.5384 71.9551 85.0167 71.9551H78.8331C76.7723 71.9551 75.791 71.334 75.5463 69.9602C75.4978 69.7962 75.4978 69.6658 75.4978 69.5018V67.1789C75.4978 67.0485 75.4978 66.9168 75.5463 66.7541C75.791 65.7069 76.3313 65.4125 78.1474 65.2486L78.6381 65.2163H93.2126V61.8152H78.884C76.8232 61.8152 75.7438 61.9456 74.7624 62.24C71.7203 63.189 70.3937 64.6933 70.3937 67.3106V70.2869C70.3937 72.5775 72.996 74.5401 77.3623 74.9985C77.8542 75.0296 78.3437 75.0643 78.8343 75.0643H84.1347C84.331 75.0643 84.5273 75.0643 84.6751 75.0954C86.2949 75.2258 86.9806 75.5215 87.4725 76.109C87.7669 76.4034 87.8638 76.6991 87.8638 77.0245V80.002C87.8638 80.361 87.6191 80.8194 87.1284 81.2119C86.6874 81.6045 85.9508 81.8666 84.9695 81.9324L84.4291 81.9647H70.3452V85.3658ZM124.854 79.4455C124.854 82.9448 127.455 84.9074 132.704 85.3012C133.195 85.3335 133.686 85.3658 134.176 85.3658H147.475V81.9647H134.079C131.086 81.9647 129.958 81.2119 129.958 79.412V61.8127H124.855V79.4455H124.854ZM96.2734 79.6219V67.492C96.2734 64.4113 98.4373 62.5418 102.715 61.9518C103.158 61.886 103.651 61.8537 104.092 61.8537H113.78C114.271 61.8537 114.714 61.886 115.204 61.9518C119.482 62.5418 121.648 64.4101 121.648 67.492V79.6219C121.648 82.1237 120.728 83.4603 118.61 84.3323L123.639 88.87H117.712L113.645 85.1981L109.551 85.4577H104.092C103.158 85.4577 102.175 85.3273 101.093 85.0317C97.8472 84.1472 96.2734 82.4417 96.2734 79.6219ZM101.781 79.3275C101.781 79.4915 101.83 79.6567 101.879 79.853C102.174 81.2628 103.503 82.0492 105.518 82.0492H110.154L105.895 78.2046H111.822L115.535 81.5585C116.22 81.192 116.67 80.6355 116.828 79.9188C116.876 79.7548 116.876 79.5909 116.876 79.4269V67.7901C116.876 67.6597 116.876 67.4945 116.828 67.3305C116.532 66.0187 115.204 65.266 113.238 65.266H105.517C103.256 65.266 101.78 66.2498 101.78 67.7901V79.3275H101.781Z" fill="#E48E00"/>
<path d="M151.964 56.167C148.828 56.0812 146.432 56.3732 144.382 57.2365C143.799 57.4824 142.871 57.4886 142.777 58.2178C143.096 58.5544 143.146 59.055 143.401 59.4674C143.89 60.2587 144.716 61.3195 145.453 61.8748C146.256 62.4822 147.086 63.1331 147.951 63.6598C149.485 64.5964 151.199 65.1306 152.678 66.0672C153.549 66.6212 154.414 67.3168 155.265 67.9416C155.686 68.2485 155.967 68.7292 156.514 68.9217V68.8335C156.227 68.4683 156.153 67.9665 155.89 67.5839L154.729 66.4237C153.595 64.9182 152.157 63.5977 150.625 62.4996C149.405 61.6239 146.675 60.4401 146.166 59.0203L146.076 58.9321C146.941 58.8339 147.954 58.5209 148.752 58.3072C150.093 57.947 151.292 58.0402 152.677 57.6824L154.55 57.1458V56.7905C153.851 56.0725 153.351 55.121 152.588 54.4714C150.592 52.7708 148.41 51.0715 146.166 49.6529C144.921 48.8679 143.382 48.3573 142.062 47.6915C141.619 47.4667 140.839 47.3512 140.545 46.9772C139.85 46.0941 139.474 44.9748 138.939 43.9451C137.821 41.7899 136.72 39.4347 135.728 37.1652C135.052 35.6187 134.61 34.0933 133.766 32.7058C129.715 26.0464 125.355 22.0267 118.602 18.0765C117.164 17.2356 115.434 16.9051 113.607 16.4716L110.663 16.2927C110.065 16.0431 109.442 15.3102 108.879 14.9549C106.641 13.5413 100.902 10.4669 99.2445 14.5102C98.1986 17.0616 100.81 19.551 101.743 20.8441C102.397 21.7509 103.237 22.767 103.705 23.7868C104.013 24.4576 104.065 25.1297 104.33 25.8389C104.977 27.5855 105.542 29.4872 106.381 31.1008C106.804 31.9182 107.273 32.779 107.808 33.5095C108.136 33.9566 108.7 34.1554 108.788 34.8473C108.238 35.6174 108.206 36.8149 107.896 37.79C106.503 42.1861 107.028 47.6505 109.057 50.9038C109.679 51.9038 111.145 54.0453 113.16 53.223C114.922 52.505 114.53 50.2802 115.034 48.3163C115.148 47.8729 115.077 47.5449 115.301 47.2468V47.3362L116.907 50.5473C118.096 52.4615 120.204 54.4602 121.991 55.8104C122.918 56.5098 123.649 57.7209 124.846 58.1296V58.0389H124.758C124.524 57.6775 124.163 57.5284 123.865 57.2365C123.167 56.552 122.39 55.7024 121.814 54.9173C120.188 52.7112 118.752 50.2951 117.443 47.7809C116.818 46.581 116.275 45.2568 115.748 44.0345C115.545 43.5637 115.547 42.8507 115.125 42.6085C114.546 43.5028 113.697 44.227 113.25 45.2841C112.537 46.9735 112.445 49.0343 112.181 51.1709L112.002 51.2591C110.758 50.9597 110.322 49.6802 109.86 48.5834C108.693 45.8096 108.475 41.3414 109.504 38.1478C109.77 37.3205 110.971 34.7181 110.484 33.9542C110.252 33.1927 109.485 32.753 109.058 32.1691C108.527 31.4499 107.997 30.5034 107.631 29.6711C106.674 27.5084 106.228 25.08 105.223 22.8925C104.741 21.8466 103.929 20.7895 103.261 19.8603C102.521 18.8293 101.693 18.0715 101.119 16.8269C100.915 16.3847 100.638 15.6754 100.94 15.2207C101.036 14.9139 101.174 14.786 101.477 14.6853C101.994 14.2866 103.434 14.8183 103.974 15.0419C105.405 15.6369 106.598 16.2021 107.811 17.0045C108.392 17.3908 108.98 18.1361 109.684 18.3423H110.486C111.742 18.6305 113.15 18.4305 114.322 18.787C116.397 19.4181 118.255 20.3982 119.942 21.464C125.083 24.711 129.286 29.332 132.163 34.8448C132.625 35.733 132.826 36.5789 133.232 37.5205C134.054 39.4185 135.09 41.3725 135.908 43.2296C136.724 45.0817 137.52 46.9512 138.674 48.4927C139.28 49.3026 141.623 49.7374 142.688 50.1871C143.434 50.5026 144.656 50.8318 145.363 51.2566C146.714 52.0715 148.023 53.0416 149.289 53.9335C149.921 54.3832 151.867 55.3608 151.964 56.167ZM112.091 22.1819C111.438 22.1695 110.975 22.254 110.485 22.3608V22.449H110.575C110.886 23.0912 111.437 23.5036 111.823 24.0552L112.716 25.9284L112.804 25.8402C113.357 25.4514 113.609 24.829 113.607 23.8775C113.384 23.644 113.352 23.3521 113.161 23.0751C112.907 22.7024 112.413 22.4937 112.091 22.1819Z" fill="#00618A"/>
</svg>
