<svg width="80" height="80" viewBox="0 0 104 104" fill="none" xmlns="http://www.w3.org/2000/svg">
<g clip-path="url(#clip0_298_466)">
<path fill-rule="evenodd" clip-rule="evenodd" d="M52.9124 56.5459L37.3084 101.881C41.9689 103.252 46.8959 104 51.9992 104C58.0539 104 63.8617 102.953 69.2673 101.052C69.1308 100.828 69.0007 100.594 68.8968 100.337L52.9124 56.5459ZM97.63 27.0514C97.8543 28.7089 97.981 30.4834 97.981 32.3976C97.981 37.6724 96.993 43.6036 94.0257 51.0234L78.1422 96.9434C93.6032 87.9312 104 71.1799 104 51.9984C104 42.9569 101.689 34.4581 97.63 27.0514ZM87.1032 49.3748C87.1032 42.9463 84.7925 38.4971 82.8165 35.0358C80.1807 30.7491 77.7075 27.1221 77.7075 22.8386C77.7075 18.0578 81.3313 13.6086 86.4402 13.6086C86.671 13.6086 86.8888 13.6378 87.113 13.6508C77.8635 5.174 65.5354 0 51.9992 0C33.8309 0 17.8498 9.321 8.55156 23.4357C9.77356 23.4748 10.9241 23.4975 11.8991 23.4975C17.3363 23.4975 25.7579 22.8377 25.7579 22.8377C28.5594 22.672 28.8909 26.793 26.0894 27.1213C26.0894 27.1213 23.2716 27.4528 20.1386 27.6185L39.0739 83.9418L50.4554 49.8127L42.3556 27.6185C39.5541 27.4528 36.8989 27.1213 36.8989 27.1213C34.0974 26.9555 34.4256 22.672 37.2304 22.8377C37.2304 22.8377 45.8169 23.4975 50.9267 23.4975C56.3639 23.4975 64.7855 22.8377 64.7855 22.8377C67.5902 22.672 67.9185 26.793 65.117 27.1213C65.117 27.1213 62.296 27.4528 59.1662 27.6185L77.9586 83.5128L83.1488 66.1838C85.3905 58.9883 87.1032 53.8241 87.1032 49.3748ZM0 51.9976C0 72.5798 11.96 90.3679 29.3061 98.7951L4.50125 30.836C1.6185 37.3011 0 44.4576 0 51.9976Z" fill="#00759D"/>
</g>
<defs>
<clipPath id="clip0_298_466">
<rect width="104" height="104" fill="white"/>
</clipPath>
</defs>
</svg>
