<svg width="114" height="114" viewBox="0 0 114 114" fill="none" xmlns="http://www.w3.org/2000/svg">
<path d="M86.0736 1.65479C76.4638 2.0146 64.7815 14.0835 68.7786 25.341C73.01 36.5103 75.721 44.4547 76.2875 56.9154C86.4433 46.6973 95.7743 35.6036 96.5269 22.7314C96.7736 12.2853 91.8289 4.58761 86.0736 1.65479ZM74.8233 59.0244C70.787 52.9325 63.4607 49.1821 60.7345 48.0314C59.2917 50.6098 57.3982 53.4108 54.9312 56.4772C49.745 63.0144 44.5153 73.7348 46.1247 86.3016C67.5469 83.9379 74.2363 67.8594 74.8233 59.0244ZM38.0289 38.5739C45.2091 40.7007 50.2385 42.009 55.6837 43.9871C63.645 46.8798 69.8954 50.5732 74.8464 56.9466C73.9282 45.9803 69.4109 33.4136 62.1995 23.6114C51.9093 9.62855 34.0905 2.91502 17.5338 9.46735C16.7732 19.2998 20.9796 33.9203 38.0289 38.5739Z" fill="#0073BB"/>
<path d="M25.408 106.747V94.4303C25.408 94.2165 25.2343 94.042 25.0205 94.042H23.2375C23.0255 94.042 22.851 94.2165 22.851 94.4303V106.747C22.851 106.96 23.0246 107.154 23.2375 107.154H25.0205C25.2343 107.154 25.408 106.96 25.408 106.747ZM15.9941 107.116V94.1239C14.9939 94.1444 13.4567 94.7972 13.438 96.1661V105.063C12.8956 105.14 12.0423 105.218 11.5774 105.218C9.91197 105.218 9.50496 104.037 9.50496 102.447V96.0949C9.40075 94.5452 7.65335 94.0936 6.94797 94.1399V102.447C6.94797 105.47 8.45847 107.314 11.5774 107.314C12.0415 107.314 13.0309 107.178 13.438 107.096V107.254C13.8325 109.802 10.742 108.841 9.06766 108.668C7.83414 108.668 6.99161 109.684 6.76807 110.829C7.48502 111.062 9.84874 111.361 11.4884 111.49C14.4533 111.489 15.9941 109.868 15.9941 107.116ZM20.6725 106.747V94.4303C20.6725 94.2165 20.4988 94.042 20.2851 94.042H18.5029C18.2892 94.042 18.1146 94.2165 18.1146 94.4303V106.747C18.1146 106.96 18.2883 107.154 18.5029 107.154H20.2851C20.4988 107.154 20.6725 106.96 20.6725 106.747ZM19.3936 90.5703C20.1292 90.5703 20.7259 91.1679 20.7259 91.9036C20.7259 92.6401 20.1292 93.2359 19.3936 93.2359C18.6579 93.2359 18.0612 92.6401 18.0612 91.9036C18.0612 91.1688 18.6579 90.5703 19.3936 90.5703ZM24.1415 90.5703C24.8771 90.5703 25.4739 91.1679 25.4739 91.9036C25.4739 92.6401 24.8771 93.2359 24.1415 93.2359C23.4058 93.2359 22.8082 92.6401 22.8082 91.9036C22.8082 91.1688 23.4058 90.5703 24.1415 90.5703Z" fill="#0073BB"/>
<path d="M33.3886 93.586V92.9225C33.3886 92.747 33.2915 92.6295 32.9985 92.5912C32.628 92.5324 31.9449 92.4745 31.2413 92.4745C29.4066 92.4745 28.2363 93.0979 28.2363 95.1873V106.895C28.2363 107.11 28.4118 107.285 28.6273 107.285H29.5634C29.778 107.285 29.9535 107.11 29.9535 106.895V97.9189H32.9976C33.2114 97.9189 33.3681 97.7621 33.3681 97.568V96.9036C33.3681 96.6889 33.2114 96.5527 32.9976 96.5527H29.9535V95.1873C29.9535 94.0349 30.1672 93.8594 31.2404 93.8594H32.9771C33.2523 93.8585 33.3886 93.7614 33.3886 93.586ZM39.6203 97.6045V96.7076C39.6203 96.4351 39.4644 96.4155 39.2115 96.4155C37.5915 96.4155 36.2448 96.4734 35.1324 96.9615C34.9178 97.0585 34.7806 97.1957 34.7806 97.4094V106.893C34.7806 107.108 34.9365 107.283 35.1324 107.283H36.1478C36.3615 107.283 36.4987 107.088 36.4987 106.893V98.1121C37.2405 97.9563 37.8854 97.9171 39.2124 97.9171C39.5811 97.918 39.6203 97.82 39.6203 97.6045ZM48.0572 106.522V97.3124C48.0572 97.0389 47.9993 96.9419 47.6475 96.8644C46.6135 96.6106 45.2277 96.4164 44.0574 96.4164C41.1299 96.4164 39.8038 98.3081 39.8038 101.236V102.601C39.8038 105.527 41.1513 107.424 44.0574 107.424C45.2473 107.424 46.6135 107.225 47.6475 106.972C47.9993 106.894 48.0572 106.776 48.0572 106.522ZM46.3392 105.781C45.7941 105.878 44.8759 105.976 44.0565 105.976C42.1247 105.976 41.5191 104.649 41.5191 102.6V101.235C41.5191 99.1658 42.1247 97.8583 44.0565 97.8583C44.8759 97.8583 45.8128 97.9563 46.3392 98.0534V105.781ZM62.2306 106.894V99.8302C62.2306 97.82 61.0986 96.4155 58.758 96.4155H58.3092C57.1389 96.4155 56.3578 96.6105 55.7727 97.1173C55.167 96.5714 54.4065 96.4155 53.2353 96.4155H52.7873C50.445 96.4155 49.3139 97.82 49.3139 99.8302V106.894C49.3139 107.109 49.4492 107.284 49.6657 107.284H50.681C50.8947 107.284 51.0319 107.109 51.0319 106.894V99.8302C51.0319 98.1513 51.7738 97.918 52.7891 97.918H53.238C54.4857 97.918 54.9159 98.1326 54.9159 99.245V106.894C54.9159 107.109 55.0522 107.284 55.2677 107.284H56.2821C56.4967 107.284 56.6339 107.109 56.6339 106.894V99.245C56.6339 98.1326 57.0632 97.918 58.3127 97.918H58.7616C59.7947 97.918 60.5179 98.1522 60.5179 99.8302V106.894C60.5179 107.109 60.6542 107.284 60.8697 107.284H61.885C62.0943 107.284 62.2306 107.109 62.2306 106.894ZM71.7603 102.035V100.982C71.7603 98.2101 70.3166 96.4164 67.4675 96.4164C64.6771 96.4164 63.1355 98.1914 63.1355 100.982V102.737C63.1355 106.367 65.3211 107.424 67.5654 107.424C68.8729 107.424 69.9461 107.307 71.0585 107.09C71.3711 107.031 71.4486 106.895 71.4486 106.641V105.977C71.4486 105.782 71.2918 105.704 71.136 105.704H71.0389C70.1411 105.84 68.6974 105.918 67.5654 105.918C65.7699 105.918 64.8526 105.06 64.8526 102.738V102.466H71.3898C71.624 102.465 71.7603 102.289 71.7603 102.035ZM70.0236 101.157H64.8517V100.982C64.8517 98.8745 65.7895 97.918 67.4675 97.918C69.1846 97.918 70.0236 98.7766 70.0236 100.982V101.157ZM85.9542 103.049V96.9419C85.9542 96.7272 85.7778 96.5518 85.5632 96.5518H84.6467C84.4321 96.5518 84.2566 96.7272 84.2566 96.9419V103.049C84.2566 105.177 83.4569 105.957 81.8564 105.957C81.3674 105.957 80.8616 105.84 80.2951 105.703V96.9419C80.2951 96.7272 80.1197 96.5518 79.905 96.5518H78.9494C78.7348 96.5518 78.5593 96.7272 78.5593 96.9419V105.703C77.9938 105.839 77.4861 105.957 76.998 105.957C75.3593 105.957 74.5987 105.177 74.5987 103.049V96.9419C74.5987 96.7272 74.4232 96.5518 74.2086 96.5518H73.2895C73.0748 96.5518 72.8994 96.7272 72.8994 96.9419V103.049C72.8994 106.504 74.8312 107.424 76.8404 107.424C77.8174 107.424 78.6163 107.246 79.4366 106.952C80.256 107.246 81.0361 107.424 82.0123 107.424C84.0215 107.424 85.9542 106.504 85.9542 103.049ZM95.9318 102.66V101.177C95.9318 98.3081 94.4481 96.4164 91.5794 96.4164C88.7115 96.4164 87.2482 98.3081 87.2482 101.177V102.66C87.2482 105.527 88.7124 107.424 91.5794 107.424C94.4481 107.424 95.9318 105.527 95.9318 102.66ZM94.2138 102.66C94.2138 104.67 93.3944 105.918 91.5794 105.918C89.7456 105.918 88.9654 104.65 88.9654 102.66V101.177C88.9654 99.1666 89.7643 97.918 91.5794 97.918C93.4149 97.918 94.2138 99.1862 94.2138 101.177V102.66ZM102.066 97.6045V96.7076C102.066 96.4351 101.91 96.4155 101.657 96.4155C100.037 96.4155 98.6901 96.4734 97.5777 96.9615C97.3631 97.0585 97.2259 97.1957 97.2259 97.4094V106.893C97.2259 107.108 97.3827 107.283 97.5777 107.283H98.593C98.8077 107.283 98.9448 107.088 98.9448 106.893V98.1121C99.6867 97.9563 100.331 97.9171 101.658 97.9171C102.027 97.918 102.066 97.82 102.066 97.6045ZM110.795 107.03C110.795 106.972 110.775 106.894 110.736 106.855L106.405 101.625L110.698 96.981C110.755 96.9223 110.795 96.8448 110.795 96.7664C110.795 96.6497 110.698 96.5518 110.502 96.5518H109.136C108.941 96.5518 108.863 96.591 108.746 96.7272L104.843 101.118V93C104.843 92.7853 104.668 92.6099 104.453 92.6099H103.516C103.302 92.6099 103.125 92.7853 103.125 93V106.894C103.125 107.109 103.301 107.284 103.516 107.284H104.453C104.667 107.284 104.843 107.109 104.843 106.894V102.23L108.727 107.03C108.882 107.225 108.961 107.284 109.175 107.284H110.58C110.717 107.284 110.795 107.167 110.795 107.03Z" fill="#0073BB"/>
</svg>
