<svg width="133" height="133" viewBox="0 0 133 133" fill="none" xmlns="http://www.w3.org/2000/svg">
<path fill-rule="evenodd" clip-rule="evenodd" d="M66.4999 1.57104C42.0892 1.57104 22.293 21.3621 22.293 45.778C22.293 65.3092 34.9591 81.8802 52.5245 87.7249C54.7335 88.1343 55.545 86.7659 55.545 85.5979C55.545 84.5443 55.5035 81.0614 55.4848 77.3686C43.1854 80.0421 40.5909 72.1525 40.5909 72.1525C38.5803 67.0424 35.6823 65.6833 35.6823 65.6833C31.6715 62.9402 35.9837 62.9963 35.9837 62.9963C40.4236 63.308 42.7615 67.5526 42.7615 67.5526C46.7037 74.3106 53.1033 72.3561 55.6251 71.2267C56.023 68.3693 57.1681 66.4179 58.4326 65.3144C48.6135 64.1974 38.2914 60.4059 38.2914 43.4671C38.2914 38.6406 40.0183 34.6974 42.8467 31.601C42.3874 30.4871 40.8745 25.9901 43.2748 19.9011C43.2748 19.9011 46.9863 18.7145 55.4318 24.4346C58.9594 23.4547 62.7416 22.9633 66.4978 22.9466C70.2551 22.9643 74.0393 23.4558 77.5721 24.4346C86.0093 18.7156 89.7167 19.9022 89.7167 19.9022C92.1232 25.9911 90.6103 30.4871 90.151 31.602C92.9856 34.6964 94.7 38.6406 94.7 43.4681C94.7 60.4464 84.3582 64.185 74.5142 65.278C76.0998 66.6496 77.5129 69.3408 77.5129 73.4659C77.5129 79.3802 77.463 84.1401 77.463 85.5959C77.463 86.77 78.2589 88.1499 80.4992 87.7156C98.0552 81.8636 110.705 65.2988 110.705 45.7738C110.707 21.3631 90.9147 1.57104 66.4999 1.57104Z" fill="#181616"/>
<path d="M39.0376 65.0411C38.9388 65.2614 38.5928 65.3269 38.279 65.1762C37.9569 65.0308 37.7782 64.7325 37.8821 64.5112C37.9756 64.2868 38.3227 64.2234 38.6438 64.3741C38.9659 64.5195 39.1487 64.8209 39.0386 65.0411H39.0376ZM40.8279 67.0403C40.6169 67.2346 40.2044 67.1442 39.9239 66.8346C39.635 66.526 39.581 66.1135 39.795 65.916C40.0112 65.7207 40.4112 65.8121 40.699 66.1207C40.99 66.4324 41.0471 66.8408 40.8268 67.0393L40.8279 67.0403ZM42.5704 69.5839C42.3002 69.773 41.8565 69.5964 41.5833 69.2026C41.311 68.8109 41.311 68.3402 41.5885 68.15C41.8628 67.9609 42.2992 68.1313 42.5756 68.521C42.8478 68.921 42.8478 69.3938 42.5704 69.585V69.5839ZM44.9581 72.0444C44.716 72.3115 44.1996 72.2398 43.8224 71.8751C43.4359 71.5187 43.3289 71.0126 43.571 70.7456C43.8172 70.4786 44.3357 70.5534 44.716 70.915C45.1005 71.2703 45.2169 71.7774 44.9581 72.0434V72.0444ZM48.254 73.4721C48.146 73.8191 47.6493 73.976 47.1485 73.8295C46.6476 73.6778 46.3214 73.2726 46.4211 72.9235C46.525 72.5743 47.0259 72.4112 47.5298 72.5681C48.0286 72.7177 48.3559 73.1188 48.253 73.4721H48.254ZM51.87 73.7371C51.8835 74.1007 51.4585 74.4041 50.9327 74.4104C50.4049 74.4228 49.9768 74.1278 49.9706 73.7682C49.9706 73.4004 50.3862 73.1012 50.914 73.0928C51.4398 73.0825 51.87 73.3755 51.87 73.7371ZM55.2365 73.1645C55.2989 73.5199 54.9352 73.8856 54.4126 73.9823C53.8993 74.0779 53.4255 73.8576 53.359 73.5043C53.2966 73.1406 53.6676 72.777 54.1798 72.6814C54.7025 72.5899 55.17 72.804 55.2365 73.1656V73.1645Z" fill="#181616"/>
<path d="M25.8259 112.533H14.7079C14.5701 112.533 14.438 112.587 14.3406 112.685C14.2431 112.782 14.1884 112.914 14.1884 113.052V118.488C14.1884 118.626 14.2431 118.758 14.3406 118.856C14.438 118.953 14.5701 119.008 14.7079 119.008H19.0439V125.762C19.0439 125.762 18.0703 126.094 15.3761 126.094C12.2007 126.094 7.76284 124.935 7.76284 115.176C7.76284 105.416 12.3846 104.131 16.7237 104.131C20.4789 104.131 22.0957 104.792 23.1264 105.11C23.4485 105.208 23.7499 104.886 23.7499 104.599L24.9895 99.3468C24.9915 99.2682 24.9744 99.1902 24.9396 99.1196C24.9049 99.0491 24.8535 98.988 24.79 98.9416C24.3712 98.6423 21.8214 97.2167 15.3781 97.2167C7.95507 97.2167 0.34082 100.373 0.34082 115.556C0.34082 130.737 9.05855 132.999 16.4047 132.999C22.4874 132.999 26.1771 130.399 26.1771 130.399C26.3288 130.316 26.3454 130.103 26.3454 130.004V113.051C26.3454 112.913 26.2907 112.781 26.1933 112.684C26.0958 112.586 25.9637 112.531 25.8259 112.531V112.533ZM82.6117 98.5135H76.3503C76.282 98.5138 76.2144 98.5275 76.1514 98.5539C76.0884 98.5804 76.0312 98.6189 75.9832 98.6675C75.9351 98.716 75.8971 98.7736 75.8713 98.8368C75.8455 98.9001 75.8325 98.9678 75.8329 99.0361L75.8349 111.135H66.0761V99.0361C66.0765 98.9679 66.0634 98.9003 66.0377 98.8371C66.012 98.7739 65.9741 98.7164 65.9261 98.6679C65.8782 98.6193 65.8211 98.5807 65.7582 98.5542C65.6954 98.5277 65.6279 98.5139 65.5597 98.5135H59.2993C59.231 98.5138 59.1634 98.5275 59.1004 98.5539C59.0374 98.5804 58.9802 98.6189 58.9322 98.6675C58.8841 98.716 58.8461 98.7736 58.8203 98.8368C58.7945 98.9001 58.7814 98.9678 58.7818 99.0361V131.798C58.7818 132.086 59.0146 132.32 59.2993 132.32H65.5597C65.628 132.32 65.6955 132.306 65.7585 132.28C65.8214 132.253 65.8785 132.214 65.9265 132.166C65.9744 132.117 66.0123 132.059 66.038 131.996C66.0637 131.933 66.0766 131.865 66.0761 131.797V117.784H75.8349L75.8183 131.797C75.8183 132.086 76.0511 132.32 76.3378 132.32H82.6117C82.68 132.32 82.7476 132.306 82.8105 132.28C82.8735 132.253 82.9305 132.214 82.9785 132.166C83.0265 132.117 83.0644 132.059 83.0901 131.996C83.1157 131.933 83.1287 131.865 83.1281 131.797V99.0351C83.1281 98.7462 82.8995 98.5135 82.6117 98.5135ZM33.6033 99.2585C31.3755 99.2585 29.5676 101.08 29.5676 103.335C29.5676 105.586 31.3755 107.413 33.6033 107.413C35.8331 107.413 37.64 105.586 37.64 103.335C37.64 101.08 35.8321 99.2585 33.6033 99.2585ZM36.6748 109.242H30.4341C30.1474 109.242 29.8918 109.537 29.8918 109.824V131.49C29.8918 132.127 30.2887 132.316 30.802 132.316H36.4233C37.0415 132.316 37.1922 132.013 37.1922 131.48V124.886V109.764C37.1925 109.696 37.1793 109.629 37.1535 109.565C37.1276 109.502 37.0896 109.445 37.0415 109.396C36.9935 109.348 36.9363 109.31 36.8734 109.283C36.8105 109.257 36.743 109.243 36.6748 109.243V109.242ZM106.922 109.291H100.708C100.64 109.291 100.572 109.305 100.51 109.332C100.447 109.358 100.39 109.397 100.342 109.446C100.294 109.494 100.256 109.552 100.231 109.615C100.205 109.678 100.192 109.746 100.193 109.814V125.878C100.193 125.878 98.6133 127.032 96.3741 127.032C94.1349 127.032 93.5406 126.016 93.5406 123.823V109.814C93.5411 109.746 93.5282 109.678 93.5025 109.615C93.4768 109.552 93.4389 109.494 93.391 109.445C93.343 109.397 93.2859 109.358 93.223 109.331C93.16 109.305 93.0925 109.291 93.0241 109.291H86.7191C86.5811 109.292 86.4492 109.347 86.3522 109.446C86.2552 109.544 86.2011 109.676 86.2017 109.814V124.883C86.2017 131.398 89.8332 132.992 94.828 132.992C98.926 132.992 102.23 130.727 102.23 130.727C102.23 130.727 102.386 131.921 102.459 132.062C102.532 132.203 102.715 132.345 102.916 132.345L106.927 132.328C106.995 132.327 107.063 132.314 107.126 132.287C107.189 132.261 107.247 132.222 107.295 132.173C107.343 132.125 107.381 132.067 107.407 132.004C107.433 131.94 107.447 131.873 107.446 131.804L107.443 109.811C107.443 109.673 107.388 109.541 107.291 109.444C107.193 109.346 107.061 109.291 106.924 109.29L106.922 109.291ZM123.902 108.555C120.373 108.555 117.973 110.129 117.973 110.129V99.0351C117.973 98.9669 117.96 98.8992 117.935 98.836C117.909 98.7729 117.871 98.7154 117.823 98.6668C117.775 98.6183 117.718 98.5797 117.655 98.5532C117.592 98.5267 117.525 98.5129 117.457 98.5124H111.18C111.111 98.5124 111.043 98.526 110.98 98.5523C110.917 98.5786 110.859 98.6171 110.811 98.6657C110.763 98.7143 110.725 98.7719 110.699 98.8353C110.673 98.8987 110.66 98.9666 110.66 99.0351V131.797C110.66 131.865 110.673 131.933 110.699 131.997C110.725 132.06 110.763 132.118 110.811 132.166C110.859 132.215 110.917 132.253 110.98 132.28C111.043 132.306 111.111 132.319 111.18 132.319H115.535C115.733 132.319 115.88 132.219 115.989 132.041C116.097 131.864 116.253 130.53 116.253 130.53C116.253 130.53 118.82 132.962 123.681 132.962C129.385 132.962 132.658 130.069 132.658 119.971C132.658 109.874 127.432 108.554 123.901 108.554L123.902 108.555ZM121.45 127.013C119.296 126.947 117.834 125.97 117.834 125.97V115.595C117.834 115.595 119.276 114.711 121.045 114.551C123.282 114.351 125.438 115.027 125.438 120.364C125.438 125.993 124.466 127.103 121.451 127.012L121.45 127.013ZM55.2729 126.89C54.9997 126.89 54.2993 127.001 53.5793 127.001C51.2725 127.001 50.4901 125.929 50.4901 124.541V115.329H55.1867C55.2553 115.329 55.3232 115.315 55.3865 115.289C55.4498 115.262 55.5072 115.224 55.5555 115.175C55.6038 115.126 55.642 115.069 55.6679 115.005C55.6937 114.942 55.7068 114.874 55.7062 114.805V109.759C55.7065 109.691 55.6933 109.623 55.6673 109.56C55.6413 109.497 55.6031 109.439 55.5548 109.391C55.5065 109.342 55.4492 109.304 55.386 109.277C55.3228 109.251 55.2551 109.238 55.1867 109.238H50.4901L50.4829 103.034C50.4829 102.799 50.3623 102.681 50.0901 102.681H43.6895C43.4422 102.681 43.3081 102.791 43.3081 103.029V109.44C43.3081 109.44 40.1005 110.214 39.8844 110.277C39.7765 110.308 39.6817 110.374 39.6143 110.464C39.5468 110.554 39.5104 110.663 39.5104 110.775V114.804C39.5099 114.872 39.523 114.94 39.5487 115.003C39.5744 115.066 39.6124 115.124 39.6603 115.172C39.7083 115.221 39.7653 115.259 39.8282 115.286C39.8911 115.312 39.9585 115.326 40.0268 115.327H43.3081V125.019C43.3081 132.22 48.358 132.926 51.7661 132.926C53.3216 132.926 55.1846 132.427 55.4922 132.313C55.6792 132.244 55.7862 132.051 55.7862 131.842L55.7904 127.411C55.7883 127.274 55.7329 127.142 55.636 127.045C55.5391 126.948 55.4082 126.892 55.2709 126.889L55.2729 126.89Z" fill="#100E0F"/>
</svg>
