<?xml version="1.0" encoding="UTF-8" standalone="no"?>
<svg
   width="50"
   height="50"
   viewBox="0 0 50 50"
   version="1.1"
   id="svg860"
   sodipodi:docname="vk-2.svg"
   inkscape:version="1.1 (c68e22c387, 2021-05-23)"
   xmlns:inkscape="http://www.inkscape.org/namespaces/inkscape"
   xmlns:sodipodi="http://sodipodi.sourceforge.net/DTD/sodipodi-0.dtd"
   xmlns="http://www.w3.org/2000/svg"
   xmlns:svg="http://www.w3.org/2000/svg">
  <sodipodi:namedview
     id="namedview862"
     pagecolor="#ffffff"
     bordercolor="#666666"
     borderopacity="1.0"
     inkscape:pageshadow="2"
     inkscape:pageopacity="0.0"
     inkscape:pagecheckerboard="0"
     showgrid="false"
     inkscape:zoom="16.18"
     inkscape:cx="25.309023"
     inkscape:cy="24.938195"
     inkscape:window-width="1920"
     inkscape:window-height="1017"
     inkscape:window-x="-8"
     inkscape:window-y="-8"
     inkscape:window-maximized="1"
     inkscape:current-layer="svg860" />
  <defs
     id="defs858">
    <clipPath
       id="clip0_290_31">
      <rect
         width="50"
         height="50"
         fill="#ffffff"
         id="rect855"
         x="0"
         y="0" />
    </clipPath>
  </defs>
  <g
     inkscape:groupmode="layer"
     id="layer1"
     inkscape:label="Layer 1"
     transform="translate(-0.09270697,-0.03090259)">
    <rect
       style="fill:#553636;fill-opacity:1;stroke-width:1.5"
       id="rect1428"
       width="18.788628"
       height="18.788628"
       x="141.65637"
       y="14.524103"
       rx="0.114652"
       ry="0.098263502" />
  </g>
  <g
     inkscape:groupmode="layer"
     id="layer2"
     inkscape:label="Layer 2"
     transform="translate(-0.09270697,-0.03090259)">
    <path
       id="path849-3"
       d="m 25.092707,0.03090259 c -13.8071,0 -25.00000003,11.19290041 -25.00000003,24.99999941 0,13.8071 11.19290003,25 25.00000003,25 13.8071,0 25,-11.1929 25,-25 0,-13.807099 -11.1929,-24.99999941 -25,-24.99999941 z M 22.608332,17.351214 c 0.400609,-0.0061 0.825325,-0.0046 1.265625,0 1.3722,0.0138 1.766134,0.09892 2.302734,0.228516 1.6168,0.3904 1.06836,1.898725 1.06836,5.515625 0,1.1578 -0.208647,2.788025 0.626953,3.328125 0.3592,0.2318 1.237547,0.03503 3.435547,-3.697266 1.0419,-1.768799 1.824218,-3.849609 1.824218,-3.849609 1e-6,0 0.170347,-0.370197 0.435547,-0.529297 0.2714,-0.1622 0.636719,-0.113281 0.636719,-0.113281 l 4.935547,-0.0293 c 0,0 1.484409,-0.177212 1.724609,0.492188 0.2518,0.7028 -0.555665,2.34355 -2.572265,5.03125 -3.3111,4.4132 -3.678388,3.999381 -0.929688,6.550781 2.6262,2.4377 3.170666,3.623984 3.259766,3.771484 1.0874,1.8031 -1.207031,1.945313 -1.207031,1.945313 l -4.382813,0.06055 c 0,0 -0.94184,0.187637 -2.181641,-0.664063 -1.639499,-1.1252 -3.186125,-4.051822 -4.390624,-3.669922 -1.222001,0.3877 -1.183594,3.019532 -1.183594,3.019532 0,0 0.009,0.563781 -0.269532,0.863281 -0.302599,0.3262 -0.896484,0.390625 -0.896484,0.390625 h -1.960937 c 0,0 -4.330079,0.260415 -8.142579,-3.708985 -4.1579,-4.3295 -7.8300776,-12.919921 -7.8300776,-12.919921 0,0 -0.2123821,-0.563638 0.01758,-0.835938 0.25847,-0.3062 0.962891,-0.326172 0.962891,-0.326172 l 4.6914056,-0.03125 c 0,0 0.441413,0.07454 0.757813,0.306641 0.2607,0.1917 0.40625,0.550781 0.40625,0.550781 0,0 0.757719,1.915991 1.761719,3.650391 1.9596,3.3861 2.873662,4.126372 3.539062,3.763671 0.9693,-0.528999 0.677735,-4.785156 0.677735,-4.785156 0,0 0.01752,-1.546375 -0.488282,-2.234375 -0.3917,-0.5335 -1.130831,-0.688722 -1.457031,-0.732422 -0.2638,-0.0352 0.170922,-0.648928 0.732422,-0.923828 0.633,-0.3102 1.62825,-0.399664 2.830078,-0.417969 z" />
  </g>
</svg>
